<?xml version="1.0" encoding="utf-8"?>
<!-- Generator: Adobe Illustrator 21.0.0, SVG Export Plug-In . SVG Version: 6.00 Build 0)  -->
<svg version="1.1" id="Layer_1" xmlns="http://www.w3.org/2000/svg" xmlns:xlink="http://www.w3.org/1999/xlink" x="0px" y="0px"
	 viewBox="0 0 138.1 44.4" style="enable-background:new 0 0 138.1 44.4;" xml:space="preserve">
<style type="text/css">
	.st0{fill:#FFFFFF;}
</style>
<g>
	<path class="st0" d="M137.6,26.5c-0.3-1.1-0.6-2-1.1-2.7s-1-1.2-1.7-1.6c-0.7-0.4-1.4-0.6-2.2-0.8c1.4-0.4,2.5-1.1,3.4-2.3
		c0.9-1.1,1.4-3,1.4-5.6V10c0-1.9-0.3-3.4-0.8-4.7c-0.5-1.3-1.3-2.3-2.4-3.1c-1.1-0.8-2.5-1.4-4.3-1.7S126,0,123.5,0H86.4v4.1
		c1.4,1.3,2.5,2.8,3.5,4.5c1.6,2.9,2.4,6.1,2.4,9.5c0,3.8-1.2,9-3.6,12.5H95l-1.8,3.7c-0.9,1.8-2.4,3.7-4.4,5.5
		c-0.7,0.6-1.5,1.2-2.3,1.7V44h37.8c2.5,0,4.6-0.2,6.4-0.5c1.8-0.3,3.2-0.9,4.3-1.6c1.1-0.8,1.9-1.7,2.4-2.9s0.7-2.7,0.7-4.5v-3.9
		C138,29,137.9,27.6,137.6,26.5 M96.2,8h26.5c2.1,0,3.5,0.2,4.3,0.7s1.2,1.4,1.2,2.7v2.8c0,1.5-0.3,2.5-1,3
		c-0.6,0.6-1.8,0.8-3.6,0.8H96.2V8z M128.8,32.5c0,1.4-0.4,2.3-1.2,2.8s-2.1,0.7-4,0.7H96.2V25.2H124c1.8,0,3.1,0.3,3.8,0.9
		c0.7,0.6,1.1,1.8,1.1,3.6v2.8H128.8z"/>
	<path class="st0" d="M86.3,32.1L86,32.5c-1.2,1.7-3,3.1-5.4,4.3s-5.5,1.8-9.1,1.8c-3.4,0-6.5-0.6-9.3-1.8c-2.7-1.1-4.8-2.9-6.2-5.3
		c-1.4-2.4-2.2-5.3-2.2-8.6c0-3.2,0.7-6.3,2.2-9.1c1.4-2.8,3.5-4.9,6.1-6.4s5.6-2.2,8.8-2.2c2.8,0,5.4,0.6,7.7,1.8
		c2.3,1.2,4,2.7,5.1,4.6s1.7,4,1.7,6.2c0,2-0.5,4.9-1.2,6.7c-0.8,2.1-1.6,2.9-3,3.9c-0.9,0.7-2.8,1-3.6,1h-9.3
		c0.6-0.6,1.7-1.6,3.4-3c2.3-2,3.9-3.5,4.9-4.6c1-1.2,1.8-2.3,2.3-3.4c0.5-1.1,0.7-2.3,0.7-3.4c0-2.3-0.8-4.3-2.5-5.8
		c-1.6-1.5-3.8-2.3-6.6-2.3c-2.7,0-4.9,0.7-6.5,2.2c-1.6,1.4-2.6,3.5-2.9,6.2L61,16.4l5.5,0.6v-1.2c0-1.3,0.4-2.3,1.1-3s1.6-1,2.9-1
		c1.1,0,2,0.3,2.7,1c0.7,0.6,1,1.4,1,2.4c0,0.9-0.4,2-1.3,3.1c-0.9,1.3-2.7,3-5.4,5.2c-1.8,1.5-3.3,2.8-4.2,4
		c-1,1.2-1.8,2.5-2.2,3.7c-0.3,0.8-0.5,1.7-0.4,2.6v1h17.9c2.7,0,5-1,7.5-3.4c3.1-2.9,4.7-8.9,4.7-13.2c0-3.1-0.8-6.1-2.3-8.7
		c-1.8-3.1-4.2-5.4-7.2-7c-3-1.5-6.4-2.3-10.2-2.3c-4.8,0-9,1.1-12.4,3.3c-2.5,1.6-4.6,3.7-6.2,6.3c0,0.1,0,0.3,0,0.4v3.6
		c0,3-0.6,5.1-1.7,6.5c-0.3,0.4-0.7,0.8-1.1,1.2c0.6,0.4,1.2,1,1.7,1.7c0.6,0.8,1,1.9,1.3,3.2c0.3,1.2,0.4,2.7,0.4,4.4v3.9
		c0,0.8-0.1,1.5-0.1,2.2c0.6,0.8,1.3,1.5,2.1,2.2c2,1.8,4.5,3.1,7.4,4c2.8,0.9,5.9,1.3,9.2,1.3c3.6,0,6.8-0.5,9.4-1.4
		c2.6-1,4.9-2.3,6.8-4s3.3-3.4,4.1-5l0.8-1.6h-6.5V32.1z"/>
	<path class="st0" d="M0,0h37.1c2.5,0,4.6,0.2,6.4,0.5c1.8,0.3,3.2,0.9,4.3,1.7s1.9,1.8,2.4,3.1S51,8.1,51,10v3.6
		c0,2.6-0.5,4.4-1.4,5.6c-0.9,1.1-2,1.9-3.4,2.3c0.8,0.2,1.5,0.4,2.2,0.8c0.7,0.4,1.2,0.9,1.7,1.6c0.5,0.7,0.8,1.6,1.1,2.7
		c0.3,1.1,0.4,2.5,0.4,4.1v3.9c0,1.8-0.2,3.2-0.7,4.5c-0.5,1.2-1.3,2.2-2.4,2.9c-1.1,0.8-2.5,1.3-4.3,1.6s-3.9,0.5-6.4,0.5H0V0z
		 M9.8,8v10.1h27.5c1.7,0,2.9-0.3,3.6-0.8c0.6-0.6,1-1.6,1-3v-2.8c0-1.3-0.4-2.2-1.2-2.7s-2.2-0.7-4.3-0.7H9.8V8z M9.8,25.2V36h27.4
		c1.9,0,3.2-0.2,4-0.7s1.2-1.4,1.2-2.8v-2.7c0-1.8-0.4-3-1.1-3.6c-0.7-0.6-2-0.9-3.8-0.9L9.8,25.2L9.8,25.2z"/>
</g>
</svg>
